<svg width="42.068237" height="22.771240" viewBox="0 0 42.0682 22.7712" fill="none" xmlns="http://www.w3.org/2000/svg" xmlns:xlink="http://www.w3.org/1999/xlink">
	<desc>
			Created with Pixso.
	</desc>
	<defs/>
	<mask id="mask1_79" mask-type="alpha" maskUnits="userSpaceOnUse" x="0.000000" y="0.000000" width="42.068237" height="22.771240">
		<rect id="Rectangle 18" width="42.068233" height="22.771149" fill="#6C6A6A" fill-opacity="1.000000"/>
	</mask>
	<g mask="url(#mask1_79)">
		<path id="Path 4" d="M41.3387 9.48584C41.479 9.35352 41.65 9.09155 41.7863 8.89258C41.9226 8.69482 41.9226 8.56519 42.0255 8.49561C42.1297 8.43164 42.0255 8.03735 41.9226 7.90503C41.821 7.77295 41.65 7.77295 41.0674 7.34399C40.4862 6.91504 40.0065 6.02637 39.8342 5.73242C39.6631 5.43457 39.6965 5.13916 39.2182 4.74243C38.7385 4.34692 38.3283 4.18262 38.0905 4.05029C37.8486 3.92065 37.5413 3.4248 37.3689 3.32739C37.1992 3.22705 37.0282 3.16309 37.0282 2.96387C37.0282 2.7688 36.9587 1.94312 36.7877 1.84424C36.618 1.74658 36.4483 1.67993 36.2733 1.71338C36.1049 1.74658 35.7962 1.74658 35.7962 1.74658L35.3834 1.81079L35.0426 1.64648C35.0426 1.64648 35.1802 1.1521 34.9758 1.05322C34.7674 0.955566 34.6311 0.855469 34.4601 0.823486C34.289 0.79126 34.0499 0.888916 34.0499 0.888916C34.0499 0.888916 33.7759 0.987793 33.6383 1.05322C33.502 1.12012 33.1252 1.21753 33.1252 1.21753C33.1252 1.21753 32.234 1.02124 31.9948 1.02124L30.1148 1.02124C29.6338 1.02124 29.7366 0.691162 29.1875 0.658936C28.6423 0.624268 28.0264 0.327637 27.6482 0.327637C27.2728 0.327637 26.7917 0.262207 26.4149 0.262207C26.0381 0.262207 25.8698 0.262207 25.5264 0.362305C25.183 0.462646 24.6365 0.691162 23.8147 0.691162C22.993 0.691162 22.2728 0.691162 21.5232 0.624268C20.7682 0.560059 20.322 0.327637 19.9091 0.327637C19.5015 0.327637 19.3973 0.296875 18.303 0.296875C17.2073 0.296875 15.5638 0.0979004 15.0494 0.0656738C14.535 0.0336914 14.0579 -0.0651855 13.442 0.0656738C12.8246 0.197998 11.7985 0.593506 11.5593 0.624268C11.3188 0.658936 10.4636 1.1521 9.94922 1.54761C9.4361 1.94312 8.27094 2.63379 7.82599 3.12964C7.38104 3.62402 6.25336 4.41357 6.01282 5.00562C5.77362 5.59888 4.77954 6.81738 4.37067 7.27979C3.95776 7.73804 3.82281 7.37598 3.64911 8.36621C3.47943 9.35352 3.24023 9.45386 3.03583 10.8032C2.83002 12.1541 2.24615 13.0439 2.00696 13.7014C1.76776 14.3601 1.35754 15.6443 1.18787 16.1733C1.01416 16.7 0.877869 17.6218 0.501099 17.9185C0.124268 18.2136 -0.149658 18.6414 0.0908813 19.137C0.330078 19.6313 0.296631 19.7957 0.465027 20.1899C0.638733 20.5867 0.911316 21.1133 1.11707 21.4741C1.32416 21.8362 1.28809 22.1328 1.56201 22.1675C1.83728 22.1982 2.05908 22.3157 2.57483 22.3157C3.08661 22.3157 3.42065 22.2971 3.73596 22.2837C4.11279 22.2651 4.98663 22.2983 5.15631 22.2983C5.32733 22.2983 5.55048 22.1675 5.55048 22.1675C5.55048 22.1675 5.41284 21.5073 5.17505 21.3752C4.93451 21.2429 4.33594 20.9475 4.06067 20.9475C3.78809 20.9475 3.30841 20.4546 3.37518 20.1899C3.4447 19.928 3.42731 19.8105 3.46204 19.7117C3.59698 19.3201 3.61707 19.0354 3.95776 18.8403C4.30115 18.6414 4.9519 18.6414 5.25922 18.1804C5.56921 17.7192 5.90991 17.686 6.45776 16.7332C7.00562 15.7766 8.06653 14.7224 8.23755 14.4282C8.40991 14.1316 9.33453 13.2058 9.33453 13.2058C9.33453 13.2058 9.9826 13.7014 10.0881 13.8992C10.1897 14.0984 10.6694 15.4478 11.1464 15.7417C11.6288 16.041 12.5521 16.9631 12.9957 17.3252C13.442 17.686 13.9537 18.2136 14.1274 18.7388C14.2971 19.2681 14.2971 19.2024 14.3318 19.8264C14.3653 20.4546 14.4361 20.9155 14.845 21.2122C15.2552 21.5073 15.5759 21.7346 15.9393 22.0032C16.6434 22.5122 17.2153 22.7366 18.4647 22.7715C18.7372 22.7769 19.3612 22.5776 19.6338 22.5776C19.9091 22.5776 19.9451 22.2983 20.2872 22.2983C20.6306 22.2983 21.1945 22.2651 21.1945 22.2651C21.2039 22.1875 21.7089 21.6223 20.6827 21.2122C20.2137 21.021 19.7581 20.7832 19.3118 20.7324C19.114 20.7124 19.1581 20.7671 18.8495 20.5693C18.5422 20.3704 18.474 20.405 18.303 20.1738C18.1306 19.9441 17.9943 19.8264 18.1306 19.499C18.2669 19.1677 18.2001 18.4448 18.0972 17.7861C17.9943 17.1274 17.8901 16.5676 17.7204 15.9089C17.5494 15.25 17.4813 14.7891 17.4813 14.3269C17.4813 13.8672 17.7538 13.7014 17.7538 13.7014C17.7538 13.7014 19.9786 12.1863 20.4261 11.9897C20.8698 11.792 21.0756 12.2864 20.9393 12.5164C20.8016 12.7449 20.7322 12.9438 20.5611 13.2739C20.3901 13.6025 20.3553 14.0315 20.3901 14.395C20.4261 14.7571 20.3553 15.3796 20.8016 16.2375C21.2479 17.0955 21.5873 18.0828 21.6915 18.8711C21.7931 19.6636 21.5552 20.1257 21.8265 20.552C22.1004 20.981 22.2728 21.0129 22.7872 21.3096C23.3003 21.6062 23.8481 22.0032 24.1555 22.2983C24.4655 22.5964 24.5657 22.7261 24.9091 22.7261C25.2524 22.7261 25.9713 22.6912 26.3481 22.7261C26.7236 22.7607 27.238 22.7849 27.5467 22.7607C28.3684 22.6912 28.6249 22.8931 28.2816 22.1982C28.0745 21.78 27.2728 21.3911 27.1338 21.3911C26.9988 21.3911 26.3481 21.2937 26.1076 21.228C25.8698 21.1614 25.4582 21.228 25.4221 20.7004C25.3874 20.1738 25.1495 19.1035 25.1495 19.1035C25.1495 19.1035 25.0453 17.8516 25.0814 17.3252C25.1135 16.7988 25.1135 16.1733 25.2845 15.8086C25.4582 15.4478 25.696 14.7571 25.696 14.7571C25.696 14.7571 26.0047 15.4158 26.8932 15.9421C27.7831 16.4688 28.2294 16.9631 28.7452 17.4895C29.2583 18.0159 30.8337 18.708 30.8337 18.708C30.8337 18.708 31.8238 18.6748 31.8238 18.9058C31.8238 19.137 31.8238 19.928 31.618 19.9922C31.4149 20.0576 31.0702 19.9614 31.4149 20.3877C31.7556 20.8152 31.6688 20.7832 31.602 21.0129C31.5325 21.2429 31.8238 21.8362 32.099 21.8054C32.3729 21.7708 32.9876 21.4741 33.16 21.1133C33.331 20.7512 33.6744 20.2234 33.7412 19.6968C33.8093 19.1677 33.8427 19.6636 33.947 18.509C34.0499 17.3572 34.1875 17.3252 33.7412 16.8643C33.2989 16.4006 32.5092 15.512 32.1311 15.1179C31.7556 14.7224 30.97 13.7322 30.7308 13.4062C30.4876 13.0762 30.215 12.845 30.4876 12.2183C30.7628 11.593 31.1744 11.2656 31.2439 10.7043C31.3107 10.1445 31.2104 9.84668 31.3428 9.55005C31.4817 9.2561 31.9948 8.95947 32.1672 8.92456C32.3395 8.89258 32.7123 8.76025 32.7123 8.76025L33.331 8.72827C33.331 8.72827 34.0846 8.89258 34.3919 8.89258C34.7006 8.89258 34.6311 8.76025 35.1802 8.99268C35.7254 9.22119 35.8884 9.2666 36.332 9.46313C36.777 9.66089 36.471 9.50708 36.9493 9.67285C37.4264 9.83716 37.3929 9.91211 37.9742 10.0444C38.5568 10.1765 38.5915 10.2969 39.1033 10.4626C39.6163 10.627 39.8235 10.7378 40.0306 10.7378C40.2337 10.7378 40.5196 10.572 40.5864 10.4412C40.6572 10.3088 40.7922 10.0776 40.7922 10.0776C40.7922 10.0776 41.2051 9.61816 41.3387 9.48584Z" fill="#6C6A6A" fill-opacity="1.000000" fill-rule="nonzero"/>
	</g>
</svg>
