<svg width="111.378845" height="31.387207" viewBox="0 0 111.379 31.3872" fill="none" xmlns="http://www.w3.org/2000/svg" xmlns:xlink="http://www.w3.org/1999/xlink">
	<desc>
			Created with Pixso.
	</desc>
	<defs/>
	<path id="LOGO" d="M34.716 0C42.5295 0 48.1999 6.0293 48.1999 15.6987C48.1999 25.3579 42.5295 31.3872 34.716 31.3872C26.9025 31.3872 21.2321 25.3579 21.2321 15.6987C21.2321 6.0293 26.9025 0 34.716 0ZM79.1005 9.9668L75.286 9.9668C73.994 5.95752 70.9897 3.46582 66.5805 3.46582C61.1459 3.46582 56.788 7.76221 56.788 15.6987C56.788 23.625 61.1459 27.9214 66.8163 27.9214C71.9945 27.9214 75.6039 24.4658 75.7065 18.98L67.6469 18.98L67.6469 15.6987L79.2851 15.6987L79.2851 18.98C79.2851 26.5371 74.0966 31.3872 66.8163 31.3872C58.7055 31.3872 53.2094 25.3579 53.2094 15.6987C53.2094 6.0293 58.7465 0 66.5805 0C73.0199 0 77.9726 4.06055 79.1005 9.9668ZM97.895 0C105.708 0 111.379 6.0293 111.379 15.6987C111.379 25.3579 105.708 31.3872 97.895 31.3872C90.0815 31.3872 84.4111 25.3579 84.4111 15.6987C84.4111 6.0293 90.0815 0 97.895 0ZM17.8931 30.9668L0 30.9668L0 0.42041L3.69141 0.42041L3.69141 27.6855L17.8931 27.6855L17.8931 30.9668ZM34.716 27.9214C40.2634 27.9214 44.6213 23.625 44.6213 15.6987C44.6213 7.76221 40.2634 3.46582 34.716 3.46582C29.1686 3.46582 24.8107 7.76221 24.8107 15.6987C24.8107 23.625 29.1686 27.9214 34.716 27.9214ZM97.895 27.9214C103.442 27.9214 107.8 23.625 107.8 15.6987C107.8 7.76221 103.442 3.46582 97.895 3.46582C92.3476 3.46582 87.9897 7.76221 87.9897 15.6987C87.9897 23.625 92.3476 27.9214 97.895 27.9214Z" fill="#6C6A6A" fill-opacity="1.000000" fill-rule="evenodd"/>
</svg>
