<svg width="1920.000000" height="361.000000" viewBox="0 0 1920 361" fill="none" xmlns="http://www.w3.org/2000/svg" xmlns:xlink="http://www.w3.org/1999/xlink">
	<desc>
			Created with Pixso.
	</desc>
	<defs/>
	<mask id="mask54_3" mask-type="alpha" maskUnits="userSpaceOnUse" x="0.000000" y="0.000000" width="1920.000000" height="361.000000">
		<rect id="Rectangle 19" width="1920.000000" height="361.000000" fill="#C4C4C4" fill-opacity="1.000000"/>
	</mask>
	<g mask="url(#mask54_3)">
		<mask id="mask1_69" mask-type="alpha" maskUnits="userSpaceOnUse" x="-105.942139" y="1.347656" width="2321.884277" height="381.304688">
			<rect id="Rectangle 5" x="-105.942139" y="382.652344" width="381.304688" height="2321.884277" transform="rotate(-90 -105.942139 382.652344)" fill="#4E379F" fill-opacity="1.000000"/>
		</mask>
		<g mask="url(#mask1_69)">
			<path id="Path 2" d="M-105.942 210.106C-105.942 159.065 -78.381 55.7817 36.9526 33.907C152.276 12.0381 184.938 78.8953 276.79 80.0852C370.69 81.2979 431.921 8.39087 431.921 8.39087C431.921 8.39087 355.713 111.68 261.816 105.601C167.921 99.5254 86.9585 61.8606 67.5643 109.246C48.1729 156.636 204.329 174.858 303.325 138.403C402.323 101.954 409.468 59.4263 519.696 27.8369C629.92 -3.76367 726.878 100.738 726.878 100.738C726.878 100.738 625.84 29.0527 591.134 71.572C556.437 114.109 617.673 160.281 718.711 146.911C819.752 133.552 844.746 67.5293 900.381 26.6184C976.924 -29.687 1060.93 20.5369 1129.33 56.9946C1200.78 95.0581 1270.86 53.3533 1270.86 53.3533C1270.86 53.3533 1209.62 114.109 1141.24 92.231C1072.86 70.3562 989.17 33.907 968.76 81.2979C948.35 128.686 1059.59 156.636 1147.37 146.911C1235.14 137.199 1304.54 33.907 1369.86 37.5542C1435.18 41.1958 1434.67 108.634 1434.67 108.634C1434.67 108.634 1404.56 65.4961 1365.77 86.1609C1326.99 106.811 1353.53 163.922 1415.79 165.138C1478.04 166.357 1471.32 84.3735 1583.17 39.9829C1675.02 3.53076 1728.47 37.6409 1789.33 64.2776C1858.73 94.6626 1904.66 70.3562 1904.66 70.3562C1904.66 70.3562 1880.16 104.385 1804.64 92.231C1729.11 80.0852 1683.18 52.1316 1614.81 82.5166C1546.43 112.89 1607.66 174.858 1699.52 172.436C1791.37 170.001 1861.79 99.5254 2002.63 166.357C2143.48 233.188 2215.94 133.552 2215.94 133.552C2215.94 133.552 2180.22 224.684 2101.63 242.902C2023.04 261.142 1951.61 168.782 1859.75 199.165C1767.89 229.538 1780.14 302.448 1812.8 320.678C1845.46 338.909 1895.47 314.603 1895.47 314.603C1895.47 314.603 1852.6 385.081 1765.86 355.915C1679.11 326.754 1677.06 259.926 1588.27 235.62C1499.48 211.316 1469.88 270.856 1383.13 252.634C1296.38 234.407 1262.69 204.028 1233.1 227.112C1203.5 250.2 1229.02 304.879 1319.85 307.314C1410.68 309.742 1444.37 279.363 1496.41 268.424C1548.46 257.491 1610.72 287.871 1610.72 287.871C1610.72 287.871 1536.22 261.142 1467.84 296.378C1399.46 331.617 1364.76 370.492 1268.82 366.851C1172.88 363.209 1172.88 286.655 1074.9 241.692C976.924 196.73 904.461 219.823 892.215 265.99C879.971 312.174 922.839 327.97 959.575 300.019C996.318 272.072 1054.49 308.527 1054.49 308.527C1054.49 308.527 1005.51 302.448 973.861 336.48C942.228 370.492 885.069 383.868 823.831 346.197C762.598 308.527 708.507 222.252 586.036 217.389C463.559 212.535 478.871 298.806 520.717 297.591C562.562 296.378 582.974 274.506 637.063 295.162C691.158 315.812 692.177 382.652 692.177 382.652C692.177 382.652 670.74 330.398 623.798 325.538C576.85 320.678 535.004 376.574 457.44 379.005C379.87 381.434 342.108 285.442 266.584 246.552C191.057 207.672 130.843 233.188 114.517 261.142C98.1833 289.083 116.554 323.107 154.316 321.891C192.078 320.678 219.634 285.442 219.634 285.442C219.634 285.442 178.1 372.926 43.0719 372.926C-66.1348 372.926 -105.942 270.856 -105.942 210.106Z" fill="#4E379F" fill-opacity="1.000000" fill-rule="nonzero"/>
		</g>
	</g>
</svg>
