<svg width="1920.000000" height="297.000000" viewBox="0 0 1920 297" fill="none" xmlns="http://www.w3.org/2000/svg" xmlns:xlink="http://www.w3.org/1999/xlink">
	<desc>
			Created with Pixso.
	</desc>
	<defs/>
	<mask id="mask39_4" mask-type="alpha" maskUnits="userSpaceOnUse" x="0.000000" y="0.000000" width="1920.000000" height="297.000000">
		<rect id="!!!!!!!!!!!!!!!!!!!" width="1920.000000" height="297.000000" fill="#C4C4C4" fill-opacity="1.000000"/>
	</mask>
	<g mask="url(#mask39_4)">
		<mask id="mask12_11" mask-type="alpha" maskUnits="userSpaceOnUse" x="-266.792114" y="-0.304688" width="2199.302979" height="381.304688">
			<path id="Rectangle 5" d="M-266.792 381L-266.792 -0.304688L1932.51 -0.304688L1932.51 381L-266.792 381Z" fill="#FFFFFF" fill-opacity="1.000000" fill-rule="evenodd"/>
		</mask>
		<g mask="url(#mask12_11)">
			<path id="Path 2" d="M1932.51 208.454C1932.51 157.413 1906.4 54.1295 1797.16 32.2548C1687.92 10.3858 1656.99 77.243 1569.98 78.4328C1481.04 79.6456 1423.04 6.73859 1423.04 6.73859C1423.04 6.73859 1495.23 110.028 1584.17 103.949C1673.11 97.8732 1749.79 60.2082 1768.16 107.593C1786.53 154.984 1638.62 173.206 1544.85 136.751C1451.08 100.302 1444.31 57.7738 1339.9 26.1847C1235.5 -5.41602 1143.66 99.086 1143.66 99.086C1143.66 99.086 1239.36 27.4004 1272.24 69.9197C1305.1 112.456 1247.1 158.629 1151.39 145.258C1055.69 131.9 1032.01 65.8768 979.315 24.9661C906.813 -31.3394 827.242 18.8844 762.45 55.3423C694.779 93.4058 628.396 51.7009 628.396 51.7009C628.396 51.7009 686.398 112.456 751.17 90.5787C815.941 68.704 895.214 32.2548 914.546 79.6456C933.879 127.034 828.508 154.984 745.366 145.258C662.227 135.547 596.498 32.2548 534.626 35.902C472.752 39.5435 473.235 106.981 473.235 106.981C473.235 106.981 501.75 63.8439 538.493 84.5086C575.229 105.159 550.09 162.27 491.12 163.486C432.15 164.704 438.521 82.7211 332.577 38.3306C245.569 1.87848 194.941 35.9886 137.301 62.6252C71.5627 93.0102 28.0588 68.704 28.0588 68.704C28.0588 68.704 51.2627 102.733 122.795 90.5787C194.339 78.4328 237.841 50.4794 302.607 80.8643C367.379 111.238 309.378 173.206 222.368 170.783C135.367 168.349 68.6611 97.8732 -64.7455 164.704C-198.157 231.536 -266.792 131.9 -266.792 131.9C-266.792 131.9 -232.958 223.031 -158.519 241.25C-84.0783 259.489 -16.4124 167.13 70.5955 197.512C157.603 227.886 145.999 300.796 115.064 319.026C84.1273 337.256 36.7614 312.95 36.7614 312.95C36.7614 312.95 77.3637 383.429 159.529 354.262C241.703 325.102 243.637 258.273 327.743 233.967C411.85 209.664 439.881 269.204 522.055 250.982C604.224 232.754 636.131 202.375 664.164 225.46C692.2 248.547 668.028 303.227 581.99 305.661C495.958 308.09 464.05 277.711 414.749 266.772C365.447 255.839 306.476 286.218 306.476 286.218C306.476 286.218 377.048 259.489 441.815 294.725C506.586 329.965 539.455 368.84 630.33 365.198C721.2 361.557 721.2 285.002 814.007 240.04C906.813 195.078 975.451 218.171 987.051 264.338C998.648 310.521 958.043 326.318 923.246 298.367C888.443 270.419 833.342 306.874 833.342 306.874C833.342 306.874 879.74 300.796 909.715 334.828C939.678 368.84 993.819 382.216 1051.82 344.545C1109.82 306.874 1161.06 220.6 1277.07 215.737C1393.08 210.882 1378.57 297.154 1338.94 295.938C1299.3 294.725 1279.96 272.854 1228.73 293.51C1177.49 314.16 1176.53 381 1176.53 381C1176.53 381 1196.83 328.746 1241.3 323.886C1285.77 319.026 1325.4 374.921 1398.87 377.353C1472.35 379.781 1508.11 283.79 1579.65 244.9C1651.19 206.02 1708.23 231.536 1723.69 259.489C1739.16 287.431 1721.76 321.455 1685.99 320.239C1650.22 319.026 1624.12 283.79 1624.12 283.79C1624.12 283.79 1663.46 371.274 1791.36 371.274C1894.81 371.274 1932.51 269.204 1932.51 208.454Z" fill="#FFFFFF" fill-opacity="1.000000" fill-rule="nonzero"/>
		</g>
	</g>
</svg>
