<svg width="1920.000000" height="374.000000" viewBox="0 0 1920 374" fill="none" xmlns="http://www.w3.org/2000/svg" xmlns:xlink="http://www.w3.org/1999/xlink">
	<desc>
			Created with Pixso.
	</desc>
	<defs/>
	<mask id="mask42_89" mask-type="alpha" maskUnits="userSpaceOnUse" x="0.000000" y="0.000000" width="1920.000000" height="374.000000">
		<rect id="Rectangle 19" width="1920.000000" height="374.000000" fill="#C4C4C4" fill-opacity="1.000000"/>
	</mask>
	<g mask="url(#mask42_89)">
		<mask id="mask41_16" mask-type="alpha" maskUnits="userSpaceOnUse" x="-105.942139" y="-2.000000" width="2321.884521" height="381.304688">
			<rect id="Rectangle 5" x="-105.942139" y="379.304688" width="381.304688" height="2321.884277" transform="rotate(-90 -105.942139 379.304688)" fill="#FFFFFF" fill-opacity="1.000000"/>
		</mask>
		<g mask="url(#mask41_16)">
			<path id="Path 2" d="M-105.942 206.759C-105.942 155.718 -78.3811 52.4341 36.9524 30.5594C152.276 8.69043 184.938 75.5477 276.79 76.7375C370.69 77.9503 431.921 5.04321 431.921 5.04321C431.921 5.04321 355.713 108.332 261.815 102.254C167.92 96.1779 86.9585 58.5129 67.5642 105.898C48.1729 153.289 204.329 171.511 303.325 135.056C402.323 98.6064 409.468 56.0785 519.696 24.4894C629.92 -7.11133 726.877 97.3906 726.877 97.3906C726.877 97.3906 625.84 25.7051 591.134 68.2244C556.437 110.761 617.673 156.933 718.711 143.563C819.751 130.204 844.746 64.1815 900.381 23.2708C976.924 -33.0347 1060.93 17.1891 1129.33 53.647C1200.78 91.7104 1270.86 50.0056 1270.86 50.0056C1270.86 50.0056 1209.62 110.761 1141.24 88.8833C1072.86 67.0087 989.17 30.5594 968.76 77.9503C948.35 125.338 1059.59 153.289 1147.37 143.563C1235.14 133.851 1304.54 30.5594 1369.86 34.2067C1435.18 37.8481 1434.67 105.286 1434.67 105.286C1434.67 105.286 1404.56 62.1486 1365.77 82.8132C1326.99 103.464 1353.53 160.575 1415.79 161.791C1478.04 163.009 1471.32 81.0258 1583.17 36.6353C1675.02 0.183105 1728.47 34.2932 1789.33 60.9299C1858.73 91.3149 1904.66 67.0087 1904.66 67.0087C1904.66 67.0087 1880.16 101.038 1804.64 88.8833C1729.11 76.7375 1683.18 48.7841 1614.81 79.1689C1546.42 109.542 1607.66 171.511 1699.52 169.088C1791.37 166.653 1861.79 96.1779 2002.63 163.009C2143.48 229.84 2215.94 130.204 2215.94 130.204C2215.94 130.204 2180.22 221.336 2101.63 239.555C2023.04 257.794 1951.61 165.435 1859.75 195.817C1767.89 226.19 1780.14 299.1 1812.8 317.331C1845.46 335.561 1895.47 311.255 1895.47 311.255C1895.47 311.255 1852.6 381.733 1765.86 352.567C1679.11 323.406 1677.06 256.578 1588.27 232.272C1499.48 207.969 1469.88 267.508 1383.13 249.286C1296.38 231.059 1262.69 200.68 1233.1 223.765C1203.5 246.852 1229.02 301.532 1319.85 303.966C1410.68 306.395 1444.37 276.016 1496.41 265.077C1548.46 254.144 1610.72 284.523 1610.72 284.523C1610.72 284.523 1536.22 257.794 1467.84 293.03C1399.46 328.269 1364.76 367.144 1268.82 363.503C1172.88 359.861 1172.88 283.307 1074.9 238.345C976.924 193.382 904.461 216.476 892.215 262.642C879.971 308.826 922.839 324.622 959.575 296.672C996.318 268.724 1054.49 305.179 1054.49 305.179C1054.49 305.179 1005.51 299.1 973.861 333.132C942.228 367.144 885.069 380.52 823.831 342.85C762.598 305.179 708.507 218.904 586.035 214.042C463.559 209.187 478.871 295.459 520.717 294.243C562.562 293.03 582.974 271.158 637.062 291.814C691.158 312.465 692.176 379.305 692.176 379.305C692.176 379.305 670.74 327.051 623.798 322.191C576.85 317.331 535.003 373.226 457.439 375.657C379.87 378.086 342.108 282.094 266.584 243.205C191.057 204.324 130.843 229.84 114.517 257.794C98.1831 285.736 116.554 319.759 154.316 318.543C192.078 317.331 219.634 282.094 219.634 282.094C219.634 282.094 178.1 369.579 43.0718 369.579C-66.135 369.579 -105.942 267.508 -105.942 206.759Z" fill="#FFFFFF" fill-opacity="1.000000" fill-rule="nonzero"/>
		</g>
	</g>
</svg>
